<svg width="800" height="150" viewBox="0 0 800 150" fill="none" xmlns="http://www.w3.org/2000/svg">
<rect width="800" height="150" rx="40" fill="#5403FF"/>
<rect x="5" y="5" width="790" height="140" rx="40" fill="black"/>
<path d="M118.414 38.5437L123.478 46.9708L77.4757 74.5713L76.7611 75L77.4757 75.4288L123.478 103.029L118.414 111.456L57.6556 75L118.414 38.5437Z" fill="white" stroke="#2A07FF"/>
<path d="M139.833 45.2083C139.833 55.4026 131.569 63.6667 121.375 63.6667C111.181 63.6667 102.917 55.4026 102.917 45.2083C102.917 35.0141 111.181 26.75 121.375 26.75C131.569 26.75 139.833 35.0141 139.833 45.2083Z" fill="white" stroke="#2A07FF"/>
<path d="M85.6667 75C85.6667 85.1943 77.4026 93.4583 67.2083 93.4583C57.0141 93.4583 48.75 85.1943 48.75 75C48.75 64.8057 57.0141 56.5417 67.2083 56.5417C77.4026 56.5417 85.6667 64.8057 85.6667 75Z" fill="#FDFDFD" stroke="#2A07FF"/>
<path d="M139.833 104.792C139.833 114.986 131.569 123.25 121.375 123.25C111.181 123.25 102.917 114.986 102.917 104.792C102.917 94.5974 111.181 86.3333 121.375 86.3333C131.569 86.3333 139.833 94.5974 139.833 104.792Z" fill="white" stroke="#2A07FF"/>
<path d="M244.467 33.7969H254.511L280.131 97.5518L305.697 33.7969H315.795L283.998 112H276.156L244.467 33.7969ZM241.19 33.7969H250.053L251.503 81.4922V112H241.19V33.7969ZM310.155 33.7969H319.018V112H308.705V81.4922L310.155 33.7969ZM339.32 33.7969L359.623 73.0596L379.979 33.7969H391.742L364.779 82.7812V112H354.413V82.7812L327.45 33.7969H339.32ZM449.213 103.567V112H410.111V103.567H449.213ZM412.152 33.7969V112H401.786V33.7969H412.152ZM472.201 33.7969V112H461.835V33.7969H472.201ZM551.21 33.7969V112H540.79L501.42 51.6826V112H491.054V33.7969H501.42L540.951 94.2754V33.7969H551.21ZM579.945 33.7969V112H569.579V33.7969H579.945ZM627.157 33.7969L594.662 70.2666L576.4 89.2266L574.682 78.1621L588.432 63.0156L614.696 33.7969H627.157ZM617.167 112L588.217 73.8652L594.394 65.6475L629.521 112H617.167ZM680.331 92.2344C680.331 90.4082 680.045 88.7969 679.472 87.4004C678.935 85.9681 677.968 84.679 676.571 83.5332C675.211 82.3874 673.313 81.2952 670.878 80.2568C668.479 79.2184 665.435 78.1621 661.747 77.0879C657.88 75.9421 654.389 74.6709 651.273 73.2744C648.158 71.8421 645.491 70.2129 643.271 68.3867C641.05 66.5605 639.35 64.4658 638.168 62.1025C636.986 59.7393 636.396 57.0358 636.396 53.9922C636.396 50.9486 637.022 48.1377 638.275 45.5596C639.529 42.9814 641.319 40.7435 643.646 38.8457C646.01 36.9121 648.821 35.4082 652.079 34.334C655.338 33.2598 658.972 32.7227 662.982 32.7227C668.855 32.7227 673.832 33.8506 677.914 36.1064C682.032 38.3265 685.165 41.2448 687.313 44.8613C689.462 48.4421 690.536 52.2734 690.536 56.3555H680.224C680.224 53.4193 679.597 50.8232 678.344 48.5674C677.09 46.2757 675.193 44.4854 672.65 43.1963C670.108 41.8714 666.885 41.209 662.982 41.209C659.294 41.209 656.251 41.764 653.852 42.874C651.452 43.984 649.662 45.488 648.48 47.3857C647.335 49.2835 646.762 51.4499 646.762 53.8848C646.762 55.5319 647.102 57.0358 647.782 58.3965C648.498 59.7214 649.59 60.9567 651.059 62.1025C652.562 63.2484 654.46 64.3047 656.752 65.2715C659.079 66.2383 661.854 67.1693 665.077 68.0645C669.517 69.3177 673.349 70.7142 676.571 72.2539C679.794 73.7936 682.444 75.5303 684.521 77.4639C686.633 79.3617 688.191 81.528 689.193 83.9629C690.232 86.362 690.751 89.0833 690.751 92.127C690.751 95.3138 690.106 98.1963 688.817 100.774C687.528 103.353 685.684 105.555 683.285 107.381C680.886 109.207 678.004 110.621 674.638 111.624C671.308 112.591 667.584 113.074 663.466 113.074C659.849 113.074 656.286 112.573 652.777 111.57C649.304 110.568 646.135 109.064 643.271 107.059C640.442 105.053 638.168 102.583 636.449 99.6465C634.766 96.6745 633.925 93.237 633.925 89.334H644.237C644.237 92.0195 644.757 94.3291 645.795 96.2627C646.833 98.1605 648.248 99.736 650.038 100.989C651.864 102.243 653.923 103.174 656.215 103.782C658.542 104.355 660.959 104.642 663.466 104.642C667.082 104.642 670.144 104.14 672.65 103.138C675.157 102.135 677.055 100.703 678.344 98.8408C679.669 96.9788 680.331 94.7767 680.331 92.2344Z" fill="white"/>
<path d="M244.467 33.7969V32.7969H242.983L243.54 34.1724L244.467 33.7969ZM254.511 33.7969L255.439 33.424L255.187 32.7969H254.511V33.7969ZM280.131 97.5518L279.203 97.9246L280.132 100.236L281.059 97.924L280.131 97.5518ZM305.697 33.7969V32.7969H305.021L304.769 33.4247L305.697 33.7969ZM315.795 33.7969L316.721 34.1735L317.281 32.7969H315.795V33.7969ZM283.998 112V113H284.671L284.924 112.377L283.998 112ZM276.156 112L275.229 112.376L275.482 113H276.156V112ZM241.19 33.7969V32.7969H240.19V33.7969H241.19ZM250.053 33.7969L251.052 33.7665L251.023 32.7969H250.053V33.7969ZM251.503 81.4922H252.503V81.477L252.502 81.4618L251.503 81.4922ZM251.503 112V113H252.503V112H251.503ZM241.19 112H240.19V113H241.19V112ZM310.155 33.7969V32.7969H309.185L309.156 33.7665L310.155 33.7969ZM319.018 33.7969H320.018V32.7969H319.018V33.7969ZM319.018 112V113H320.018V112H319.018ZM308.705 112H307.705V113H308.705V112ZM308.705 81.4922L307.706 81.4618L307.705 81.477V81.4922H308.705ZM244.467 34.7969H254.511V32.7969H244.467V34.7969ZM253.583 34.1697L279.203 97.9246L281.059 97.1789L255.439 33.424L253.583 34.1697ZM281.059 97.924L306.625 34.1691L304.769 33.4247L279.203 97.1796L281.059 97.924ZM305.697 34.7969H315.795V32.7969H305.697V34.7969ZM314.869 33.4202L283.072 111.623L284.924 112.377L316.721 34.1735L314.869 33.4202ZM283.998 111H276.156V113H283.998V111ZM277.083 111.624L245.394 33.4213L243.54 34.1724L275.229 112.376L277.083 111.624ZM241.19 34.7969H250.053V32.7969H241.19V34.7969ZM249.053 33.8273L250.503 81.5226L252.502 81.4618L251.052 33.7665L249.053 33.8273ZM250.503 81.4922V112H252.503V81.4922H250.503ZM251.503 111H241.19V113H251.503V111ZM242.19 112V33.7969H240.19V112H242.19ZM310.155 34.7969H319.018V32.7969H310.155V34.7969ZM318.018 33.7969V112H320.018V33.7969H318.018ZM319.018 111H308.705V113H319.018V111ZM309.705 112V81.4922H307.705V112H309.705ZM309.705 81.5226L311.155 33.8273L309.156 33.7665L307.706 81.4618L309.705 81.5226ZM339.32 33.7969L340.209 33.3376L339.929 32.7969H339.32V33.7969ZM359.623 73.0596L358.735 73.5189L359.622 75.2344L360.511 73.5199L359.623 73.0596ZM379.979 33.7969V32.7969H379.372L379.092 33.3366L379.979 33.7969ZM391.742 33.7969L392.618 34.2791L393.434 32.7969H391.742V33.7969ZM364.779 82.7812L363.903 82.299L363.779 82.5242V82.7812H364.779ZM364.779 112V113H365.779V112H364.779ZM354.413 112H353.413V113H354.413V112ZM354.413 82.7812H355.413V82.5242L355.289 82.299L354.413 82.7812ZM327.45 33.7969V32.7969H325.758L326.574 34.2791L327.45 33.7969ZM338.432 34.2562L358.735 73.5189L360.511 72.6002L340.209 33.3376L338.432 34.2562ZM360.511 73.5199L380.867 34.2572L379.092 33.3366L358.735 72.5993L360.511 73.5199ZM379.979 34.7969H391.742V32.7969H379.979V34.7969ZM390.866 33.3147L363.903 82.299L365.655 83.2635L392.618 34.2791L390.866 33.3147ZM363.779 82.7812V112H365.779V82.7812H363.779ZM364.779 111H354.413V113H364.779V111ZM355.413 112V82.7812H353.413V112H355.413ZM355.289 82.299L328.326 33.3147L326.574 34.2791L353.537 83.2635L355.289 82.299ZM327.45 34.7969H339.32V32.7969H327.45V34.7969ZM449.213 103.567H450.213V102.567H449.213V103.567ZM449.213 112V113H450.213V112H449.213ZM410.111 112H409.111V113H410.111V112ZM410.111 103.567V102.567H409.111V103.567H410.111ZM412.152 33.7969H413.152V32.7969H412.152V33.7969ZM412.152 112V113H413.152V112H412.152ZM401.786 112H400.786V113H401.786V112ZM401.786 33.7969V32.7969H400.786V33.7969H401.786ZM448.213 103.567V112H450.213V103.567H448.213ZM449.213 111H410.111V113H449.213V111ZM411.111 112V103.567H409.111V112H411.111ZM410.111 104.567H449.213V102.567H410.111V104.567ZM411.152 33.7969V112H413.152V33.7969H411.152ZM412.152 111H401.786V113H412.152V111ZM402.786 112V33.7969H400.786V112H402.786ZM401.786 34.7969H412.152V32.7969H401.786V34.7969ZM472.201 33.7969H473.201V32.7969H472.201V33.7969ZM472.201 112V113H473.201V112H472.201ZM461.835 112H460.835V113H461.835V112ZM461.835 33.7969V32.7969H460.835V33.7969H461.835ZM471.201 33.7969V112H473.201V33.7969H471.201ZM472.201 111H461.835V113H472.201V111ZM462.835 112V33.7969H460.835V112H462.835ZM461.835 34.7969H472.201V32.7969H461.835V34.7969ZM551.21 33.7969H552.21V32.7969H551.21V33.7969ZM551.21 112V113H552.21V112H551.21ZM540.79 112L539.953 112.547L540.249 113H540.79V112ZM501.42 51.6826L502.257 51.136L500.42 48.321V51.6826H501.42ZM501.42 112V113H502.42V112H501.42ZM491.054 112H490.054V113H491.054V112ZM491.054 33.7969V32.7969H490.054V33.7969H491.054ZM501.42 33.7969L502.257 33.2497L501.961 32.7969H501.42V33.7969ZM540.951 94.2754L540.114 94.8225L541.951 97.633V94.2754H540.951ZM540.951 33.7969V32.7969H539.951V33.7969H540.951ZM550.21 33.7969V112H552.21V33.7969H550.21ZM551.21 111H540.79V113H551.21V111ZM541.627 111.453L502.257 51.136L500.583 52.2292L539.953 112.547L541.627 111.453ZM500.42 51.6826V112H502.42V51.6826H500.42ZM501.42 111H491.054V113H501.42V111ZM492.054 112V33.7969H490.054V112H492.054ZM491.054 34.7969H501.42V32.7969H491.054V34.7969ZM500.583 34.344L540.114 94.8225L541.788 93.7283L502.257 33.2497L500.583 34.344ZM541.951 94.2754V33.7969H539.951V94.2754H541.951ZM540.951 34.7969H551.21V32.7969H540.951V34.7969ZM579.945 33.7969H580.945V32.7969H579.945V33.7969ZM579.945 112V113H580.945V112H579.945ZM569.579 112H568.579V113H569.579V112ZM569.579 33.7969V32.7969H568.579V33.7969H569.579ZM627.157 33.7969L627.904 34.4621L629.388 32.7969H627.157V33.7969ZM594.662 70.2666L595.382 70.9603L595.396 70.9463L595.409 70.9319L594.662 70.2666ZM576.4 89.2266L575.412 89.3801L575.722 91.3726L577.121 89.9203L576.4 89.2266ZM574.682 78.1621L573.941 77.49L573.62 77.8436L573.693 78.3156L574.682 78.1621ZM588.432 63.0156L589.172 63.6878L589.175 63.6841L588.432 63.0156ZM614.696 33.7969V32.7969H614.251L613.953 33.1284L614.696 33.7969ZM617.167 112L616.371 112.605L616.671 113H617.167V112ZM588.217 73.8652L587.417 73.2644L586.964 73.8682L587.42 74.4699L588.217 73.8652ZM594.394 65.6475L595.191 65.0435L594.39 63.9875L593.594 65.0466L594.394 65.6475ZM629.521 112V113H631.533L630.318 111.396L629.521 112ZM578.945 33.7969V112H580.945V33.7969H578.945ZM579.945 111H569.579V113H579.945V111ZM570.579 112V33.7969H568.579V112H570.579ZM569.579 34.7969H579.945V32.7969H569.579V34.7969ZM626.411 33.1316L593.915 69.6014L595.409 70.9319L627.904 34.4621L626.411 33.1316ZM593.942 69.5729L575.68 88.5328L577.121 89.9203L595.382 70.9603L593.942 69.5729ZM577.389 89.0731L575.67 78.0086L573.693 78.3156L575.412 89.3801L577.389 89.0731ZM575.422 78.8343L589.172 63.6878L587.691 62.3435L573.941 77.49L575.422 78.8343ZM589.175 63.6841L615.44 34.4654L613.953 33.1284L587.688 62.3471L589.175 63.6841ZM614.696 34.7969H627.157V32.7969H614.696V34.7969ZM617.963 111.395L589.013 73.2606L587.42 74.4699L616.371 112.605L617.963 111.395ZM589.016 74.4661L595.193 66.2483L593.594 65.0466L587.417 73.2644L589.016 74.4661ZM593.597 66.2514L628.724 112.604L630.318 111.396L595.191 65.0435L593.597 66.2514ZM629.521 111H617.167V113H629.521V111ZM679.472 87.4004L678.535 87.7515L678.541 87.7658L678.547 87.7799L679.472 87.4004ZM676.571 83.5332L675.927 84.2982L675.937 84.3063L676.571 83.5332ZM670.878 80.2568L670.481 81.1746L670.486 81.1767L670.878 80.2568ZM661.747 77.0879L661.463 78.0467L661.467 78.048L661.747 77.0879ZM651.273 73.2744L650.856 74.183L650.864 74.1869L651.273 73.2744ZM643.646 38.8457L644.278 39.6207L644.28 39.6197L643.646 38.8457ZM677.914 36.1064L677.43 36.9817L677.44 36.9867L677.914 36.1064ZM687.313 44.8613L686.454 45.3721L686.456 45.3758L687.313 44.8613ZM690.536 56.3555V57.3555H691.536V56.3555H690.536ZM680.224 56.3555H679.224V57.3555H680.224V56.3555ZM678.344 48.5674L677.466 49.0472L677.47 49.053L678.344 48.5674ZM672.65 43.1963L672.188 44.0832L672.198 44.0882L672.65 43.1963ZM648.48 47.3857L647.631 46.8571L647.624 46.8689L648.48 47.3857ZM647.782 58.3965L646.888 58.8437L646.895 58.858L646.903 58.872L647.782 58.3965ZM651.059 62.1025L650.443 62.8909L650.453 62.898L651.059 62.1025ZM656.752 65.2715L656.363 66.1929L656.368 66.195L656.752 65.2715ZM665.077 68.0645L665.349 67.102L665.345 67.1009L665.077 68.0645ZM684.521 77.4639L683.839 78.1958L683.846 78.2018L683.852 78.2078L684.521 77.4639ZM689.193 83.9629L688.269 84.3436L688.272 84.3519L688.276 84.3601L689.193 83.9629ZM683.285 107.381L682.679 106.585L683.285 107.381ZM674.638 111.624L674.917 112.584L674.923 112.582L674.638 111.624ZM652.777 111.57L652.5 112.531L652.503 112.532L652.777 111.57ZM643.271 107.059L642.692 107.874L642.697 107.878L643.271 107.059ZM636.449 99.6465L635.579 100.139L635.583 100.145L635.586 100.152L636.449 99.6465ZM633.925 89.334V88.334H632.925V89.334H633.925ZM644.237 89.334H645.237V88.334H644.237V89.334ZM645.795 96.2627L644.914 96.7358L644.918 96.7427L645.795 96.2627ZM650.038 100.989L649.465 101.809L649.472 101.814L650.038 100.989ZM656.215 103.782L655.958 104.749L655.967 104.751L655.976 104.753L656.215 103.782ZM678.344 98.8408L677.529 98.261L677.522 98.2716L678.344 98.8408ZM681.331 92.2344C681.331 90.3047 681.028 88.5602 680.397 87.0208L678.547 87.7799C679.061 89.0336 679.331 90.5117 679.331 92.2344H681.331ZM680.408 87.0493C679.799 85.4246 678.713 83.9973 677.206 82.7601L675.937 84.3063C677.222 85.3608 678.07 86.5116 678.535 87.7515L680.408 87.0493ZM677.215 82.7683C675.752 81.5357 673.756 80.3973 671.27 79.337L670.486 81.1767C672.869 82.1932 674.67 83.2391 675.927 84.2981L677.215 82.7683ZM671.275 79.3391C668.825 78.2784 665.738 77.2088 662.027 76.1278L661.467 78.048C665.132 79.1154 668.133 80.1584 670.481 81.1746L671.275 79.3391ZM662.031 76.1291C658.199 74.9937 654.751 73.7373 651.682 72.3619L650.864 74.1869C654.027 75.6045 657.561 76.8904 661.463 78.0467L662.031 76.1291ZM651.691 72.3658C648.639 70.9628 646.048 69.3767 643.906 67.6144L642.635 69.159C644.933 71.0491 647.677 72.7215 650.856 74.183L651.691 72.3658ZM643.906 67.6144C641.784 65.8693 640.176 63.8826 639.062 61.6553L637.274 62.5498C638.523 65.049 640.317 67.2517 642.635 69.159L643.906 67.6144ZM639.062 61.6553C637.96 59.4506 637.396 56.9042 637.396 53.9922H635.396C635.396 57.1674 636.013 60.0279 637.274 62.5498L639.062 61.6553ZM637.396 53.9922C637.396 51.0905 637.992 48.4303 639.175 45.9968L637.376 45.1224C636.052 47.8451 635.396 50.8067 635.396 53.9922H637.396ZM639.175 45.9968C640.361 43.5556 642.058 41.4311 644.278 39.6207L643.015 38.0707C640.58 40.0558 638.696 42.4073 637.376 45.1224L639.175 45.9968ZM644.28 39.6197C646.537 37.7728 649.236 36.3242 652.392 35.2837L651.766 33.3843C648.405 34.4922 645.483 36.0514 643.013 38.0717L644.28 39.6197ZM652.392 35.2837C655.534 34.2479 659.061 33.7227 662.982 33.7227V31.7227C658.883 31.7227 655.141 32.2717 651.766 33.3843L652.392 35.2837ZM662.982 33.7227C668.729 33.7227 673.53 34.8262 677.43 36.9817L678.398 35.2312C674.134 32.8749 668.981 31.7227 662.982 31.7227V33.7227ZM677.44 36.9867C681.416 39.1306 684.408 41.9283 686.454 45.3721L688.173 44.3506C685.922 40.5613 682.648 37.5224 678.389 35.2262L677.44 36.9867ZM686.456 45.3758C688.513 48.8049 689.536 52.459 689.536 56.3555H691.536C691.536 52.0879 690.41 48.0792 688.171 44.3468L686.456 45.3758ZM690.536 55.3555H680.224V57.3555H690.536V55.3555ZM681.224 56.3555C681.224 53.2731 680.565 50.5056 679.218 48.0817L677.47 49.053C678.63 51.1409 679.224 53.5655 679.224 56.3555H681.224ZM679.221 48.0876C677.862 45.6026 675.808 43.676 673.103 42.3044L672.198 44.0882C674.578 45.2947 676.319 46.9489 677.466 49.0472L679.221 48.0876ZM673.113 42.3095C670.385 40.8883 666.991 40.209 662.982 40.209V42.209C666.78 42.209 669.831 42.8545 672.188 44.0831L673.113 42.3095ZM662.982 40.209C659.203 40.209 656.004 40.7764 653.432 41.9665L654.271 43.7816C656.498 42.7515 659.386 42.209 662.982 42.209V40.209ZM653.432 41.9665C650.889 43.1431 648.934 44.7657 647.632 46.8572L649.329 47.9143C650.39 46.2102 652.016 44.825 654.271 43.7816L653.432 41.9665ZM647.624 46.8689C646.375 48.9377 645.762 51.2862 645.762 53.8848H647.762C647.762 51.6136 648.294 49.6293 649.337 47.9026L647.624 46.8689ZM645.762 53.8848C645.762 55.674 646.132 57.3329 646.888 58.8437L648.677 57.9493C648.071 56.7387 647.762 55.3898 647.762 53.8848H645.762ZM646.903 58.872C647.698 60.3434 648.891 61.6796 650.443 62.8909L651.674 61.3142C650.29 60.2338 649.299 59.0993 648.662 57.921L646.903 58.872ZM650.453 62.898C652.041 64.1078 654.017 65.203 656.363 66.1928L657.141 64.3501C654.904 63.4064 653.084 62.3889 651.665 61.3071L650.453 62.898ZM656.368 66.195C658.744 67.1816 661.559 68.1251 664.81 69.028L665.345 67.1009C662.15 66.2134 659.415 65.295 657.136 64.348L656.368 66.195ZM664.806 69.0269C669.206 70.2689 672.981 71.6469 676.14 73.1562L677.002 71.3516C673.716 69.7815 669.829 68.3666 665.349 67.1021L664.806 69.0269ZM676.14 73.1562C679.294 74.6629 681.853 76.3465 683.839 78.1958L685.202 76.732C683.034 74.714 680.294 72.9243 677.002 71.3516L676.14 73.1562ZM683.852 78.2078C685.862 80.0133 687.328 82.0582 688.269 84.3436L690.118 83.5821C689.054 80.9978 687.404 78.71 685.189 76.7199L683.852 78.2078ZM688.276 84.3601C689.252 86.6149 689.751 89.1978 689.751 92.127H691.751C691.751 88.9689 691.212 86.1091 690.111 83.5657L688.276 84.3601ZM689.751 92.127C689.751 95.1752 689.136 97.9021 687.923 100.327L689.712 101.222C691.077 98.4905 691.751 95.4524 691.751 92.127H689.751ZM687.923 100.327C686.705 102.762 684.963 104.847 682.679 106.585L683.891 108.177C686.406 106.262 688.351 103.943 689.712 101.222L687.923 100.327ZM682.679 106.585C680.391 108.327 677.621 109.692 674.352 110.666L674.923 112.582C678.386 111.551 681.381 110.087 683.891 108.177L682.679 106.585ZM674.359 110.664C671.134 111.6 667.506 112.074 663.466 112.074V114.074C667.661 114.074 671.481 113.582 674.917 112.584L674.359 110.664ZM663.466 112.074C659.943 112.074 656.473 111.586 653.052 110.609L652.503 112.532C656.1 113.56 659.756 114.074 663.466 114.074V112.074ZM653.055 110.61C649.684 109.636 646.615 108.179 643.844 106.239L642.697 107.878C645.655 109.948 648.924 111.499 652.5 112.531L653.055 110.61ZM643.849 106.243C641.134 104.318 638.958 101.953 637.312 99.1413L635.586 100.152C637.378 103.213 639.75 105.789 642.692 107.874L643.849 106.243ZM637.319 99.1537C635.733 96.3524 634.925 93.0893 634.925 89.334H632.925C632.925 93.3847 633.799 96.9966 635.579 100.139L637.319 99.1537ZM633.925 90.334H644.237V88.334H633.925V90.334ZM643.237 89.334C643.237 92.1481 643.782 94.6277 644.914 96.7358L646.676 95.7896C645.731 94.0305 645.237 91.8909 645.237 89.334H643.237ZM644.918 96.7427C646.031 98.7769 647.55 100.468 649.465 101.808L650.612 100.17C648.946 99.004 647.636 97.5441 646.672 95.7827L644.918 96.7427ZM649.472 101.814C651.399 103.136 653.564 104.113 655.958 104.749L656.472 102.816C654.282 102.234 652.329 101.349 650.604 100.165L649.472 101.814ZM655.976 104.753C658.385 105.346 660.882 105.642 663.466 105.642V103.642C661.036 103.642 658.7 103.364 656.454 102.811L655.976 104.753ZM663.466 105.642C667.169 105.642 670.364 105.129 673.022 104.066L672.279 102.209C669.923 103.152 666.996 103.642 663.466 103.642V105.642ZM673.022 104.066C675.675 103.005 677.745 101.462 679.166 99.41L677.522 98.2716C676.364 99.9433 674.639 101.265 672.279 102.209L673.022 104.066ZM679.159 99.4206C680.617 97.3704 681.331 94.96 681.331 92.2344H679.331C679.331 94.5933 678.72 96.5873 677.529 98.2611L679.159 99.4206Z" fill="#100BFF"/>
</svg>
