<svg width="800" height="150" viewBox="0 0 800 150" fill="none" xmlns="http://www.w3.org/2000/svg">
<rect width="800" height="150" fill="#E5E5E5"/>
<rect width="800" height="150" rx="40" fill="black"/>
<rect x="5" y="5" width="790" height="140" rx="40" fill="url(#paint0_linear_0_1)"/>
<rect x="5" y="5" width="790" height="140" rx="40" fill="white" fill-opacity="0.35"/>
<path d="M110.922 48.9437L114.613 55.0853L76.1826 78.1425L74.7534 79L76.1826 79.8575L114.613 102.915L110.922 109.056L60.8298 79L110.922 48.9437Z" fill="white" stroke="black" stroke-width="2"/>
<path d="M128.667 53.7917C128.667 62.0989 121.932 68.8333 113.625 68.8333C105.318 68.8333 98.5833 62.0989 98.5833 53.7917C98.5833 45.4844 105.318 38.75 113.625 38.75C121.932 38.75 128.667 45.4844 128.667 53.7917Z" fill="white" stroke="black" stroke-width="2"/>
<path d="M82.8333 79C82.8333 87.3073 76.0989 94.0417 67.7917 94.0417C59.4844 94.0417 52.75 87.3073 52.75 79C52.75 70.6927 59.4844 63.9583 67.7917 63.9583C76.0989 63.9583 82.8333 70.6927 82.8333 79Z" fill="#FDFDFD" stroke="black" stroke-width="2"/>
<path d="M128.667 104.208C128.667 112.516 121.932 119.25 113.625 119.25C105.318 119.25 98.5833 112.516 98.5833 104.208C98.5833 95.901 105.318 89.1667 113.625 89.1667C121.932 89.1667 128.667 95.901 128.667 104.208Z" fill="white" stroke="black" stroke-width="2"/>
<path d="M300.203 47.125H307.508L326.141 93.4922L344.734 47.125H352.078L328.953 104H323.25L300.203 47.125ZM297.82 47.125H304.266L305.32 81.8125V104H297.82V47.125ZM347.977 47.125H354.422V104H346.922V81.8125L347.977 47.125ZM369.188 47.125L383.953 75.6797L398.758 47.125H407.312L387.703 82.75V104H380.164V82.75L360.555 47.125H369.188ZM449.109 97.8672V104H420.672V97.8672H449.109ZM422.156 47.125V104H414.617V47.125H422.156ZM465.828 47.125V104H458.289V47.125H465.828ZM523.289 47.125V104H515.711L487.078 60.1328V104H479.539V47.125H487.078L515.828 91.1094V47.125H523.289ZM544.188 47.125V104H536.648V47.125H544.188ZM578.523 47.125L554.891 73.6484L541.609 87.4375L540.359 79.3906L550.359 68.375L569.461 47.125H578.523ZM571.258 104L550.203 76.2656L554.695 70.2891L580.242 104H571.258ZM617.195 89.625C617.195 88.2969 616.987 87.125 616.57 86.1094C616.18 85.0677 615.477 84.1302 614.461 83.2969C613.471 82.4635 612.091 81.6693 610.32 80.9141C608.576 80.1589 606.362 79.3906 603.68 78.6094C600.867 77.776 598.328 76.8516 596.062 75.8359C593.797 74.7943 591.857 73.6094 590.242 72.2812C588.628 70.9531 587.391 69.4297 586.531 67.7109C585.672 65.9922 585.242 64.026 585.242 61.8125C585.242 59.599 585.698 57.5547 586.609 55.6797C587.521 53.8047 588.823 52.1771 590.516 50.7969C592.234 49.3906 594.279 48.2969 596.648 47.5156C599.018 46.7344 601.661 46.3438 604.578 46.3438C608.849 46.3438 612.469 47.1641 615.438 48.8047C618.432 50.4193 620.711 52.5417 622.273 55.1719C623.836 57.776 624.617 60.5625 624.617 63.5312H617.117C617.117 61.3958 616.661 59.5078 615.75 57.8672C614.839 56.2005 613.458 54.8984 611.609 53.9609C609.76 52.9974 607.417 52.5156 604.578 52.5156C601.896 52.5156 599.682 52.9193 597.938 53.7266C596.193 54.5339 594.891 55.6276 594.031 57.0078C593.198 58.388 592.781 59.9635 592.781 61.7344C592.781 62.9323 593.029 64.026 593.523 65.0156C594.044 65.9792 594.839 66.8776 595.906 67.7109C597 68.5443 598.38 69.3125 600.047 70.0156C601.74 70.7188 603.758 71.3958 606.102 72.0469C609.331 72.9583 612.117 73.974 614.461 75.0938C616.805 76.2135 618.732 77.4766 620.242 78.8828C621.779 80.263 622.911 81.8385 623.641 83.6094C624.396 85.3542 624.773 87.3333 624.773 89.5469C624.773 91.8646 624.305 93.9609 623.367 95.8359C622.43 97.7109 621.089 99.3125 619.344 100.641C617.599 101.969 615.503 102.997 613.055 103.727C610.633 104.43 607.924 104.781 604.93 104.781C602.299 104.781 599.708 104.417 597.156 103.688C594.63 102.958 592.326 101.865 590.242 100.406C588.185 98.9479 586.531 97.151 585.281 95.0156C584.057 92.8542 583.445 90.3542 583.445 87.5156H590.945C590.945 89.4688 591.323 91.1484 592.078 92.5547C592.833 93.9349 593.862 95.0807 595.164 95.9922C596.492 96.9036 597.99 97.5807 599.656 98.0234C601.349 98.4401 603.107 98.6484 604.93 98.6484C607.56 98.6484 609.786 98.2839 611.609 97.5547C613.432 96.8255 614.812 95.7839 615.75 94.4297C616.714 93.0755 617.195 91.474 617.195 89.625Z" fill="white"/>
<path d="M300.203 47.125V45.125H297.235L298.35 47.8761L300.203 47.125ZM307.508 47.125L309.364 46.3793L308.86 45.125H307.508V47.125ZM326.141 93.4922L324.285 94.2379L326.143 98.8608L327.997 94.2366L326.141 93.4922ZM344.734 47.125V45.125H343.382L342.878 46.3806L344.734 47.125ZM352.078 47.125L353.931 47.8783L355.05 45.125H352.078V47.125ZM328.953 104V106H330.299L330.806 104.753L328.953 104ZM323.25 104L321.396 104.751L321.902 106H323.25V104ZM297.82 47.125V45.125H295.82V47.125H297.82ZM304.266 47.125L306.265 47.0642L306.206 45.125H304.266V47.125ZM305.32 81.8125H307.32V81.7821L307.319 81.7517L305.32 81.8125ZM305.32 104V106H307.32V104H305.32ZM297.82 104H295.82V106H297.82V104ZM347.977 47.125V45.125H346.036L345.977 47.0642L347.977 47.125ZM354.422 47.125H356.422V45.125H354.422V47.125ZM354.422 104V106H356.422V104H354.422ZM346.922 104H344.922V106H346.922V104ZM346.922 81.8125L344.923 81.7517L344.922 81.7821V81.8125H346.922ZM300.203 49.125H307.508V45.125H300.203V49.125ZM305.652 47.8707L324.285 94.2379L327.996 92.7464L309.364 46.3793L305.652 47.8707ZM327.997 94.2366L346.591 47.8694L342.878 46.3806L324.284 92.7478L327.997 94.2366ZM344.734 49.125H352.078V45.125H344.734V49.125ZM350.225 46.3717L327.1 103.247L330.806 104.753L353.931 47.8783L350.225 46.3717ZM328.953 102H323.25V106H328.953V102ZM325.104 103.249L302.057 46.3739L298.35 47.8761L321.396 104.751L325.104 103.249ZM297.82 49.125H304.266V45.125H297.82V49.125ZM302.267 47.1858L303.321 81.8733L307.319 81.7517L306.265 47.0642L302.267 47.1858ZM303.32 81.8125V104H307.32V81.8125H303.32ZM305.32 102H297.82V106H305.32V102ZM299.82 104V47.125H295.82V104H299.82ZM347.977 49.125H354.422V45.125H347.977V49.125ZM352.422 47.125V104H356.422V47.125H352.422ZM354.422 102H346.922V106H354.422V102ZM348.922 104V81.8125H344.922V104H348.922ZM348.921 81.8733L349.976 47.1858L345.977 47.0642L344.923 81.7517L348.921 81.8733ZM369.188 47.125L370.964 46.2064L370.405 45.125H369.188V47.125ZM383.953 75.6797L382.177 76.5983L383.951 80.0294L385.729 76.6003L383.953 75.6797ZM398.758 47.125V45.125H397.542L396.982 46.2044L398.758 47.125ZM407.312 47.125L409.065 48.0894L410.696 45.125H407.312V47.125ZM387.703 82.75L385.951 81.7856L385.703 82.2359V82.75H387.703ZM387.703 104V106H389.703V104H387.703ZM380.164 104H378.164V106H380.164V104ZM380.164 82.75H382.164V82.2359L381.916 81.7856L380.164 82.75ZM360.555 47.125V45.125H357.171L358.803 48.0894L360.555 47.125ZM367.411 48.0436L382.177 76.5983L385.73 74.761L370.964 46.2064L367.411 48.0436ZM385.729 76.6003L400.533 48.0456L396.982 46.2044L382.178 74.7591L385.729 76.6003ZM398.758 49.125H407.312V45.125H398.758V49.125ZM405.56 46.1606L385.951 81.7856L389.455 83.7144L409.065 48.0894L405.56 46.1606ZM385.703 82.75V104H389.703V82.75H385.703ZM387.703 102H380.164V106H387.703V102ZM382.164 104V82.75H378.164V104H382.164ZM381.916 81.7856L362.307 46.1606L358.803 48.0894L378.412 83.7144L381.916 81.7856ZM360.555 49.125H369.188V45.125H360.555V49.125ZM449.109 97.8672H451.109V95.8672H449.109V97.8672ZM449.109 104V106H451.109V104H449.109ZM420.672 104H418.672V106H420.672V104ZM420.672 97.8672V95.8672H418.672V97.8672H420.672ZM422.156 47.125H424.156V45.125H422.156V47.125ZM422.156 104V106H424.156V104H422.156ZM414.617 104H412.617V106H414.617V104ZM414.617 47.125V45.125H412.617V47.125H414.617ZM447.109 97.8672V104H451.109V97.8672H447.109ZM449.109 102H420.672V106H449.109V102ZM422.672 104V97.8672H418.672V104H422.672ZM420.672 99.8672H449.109V95.8672H420.672V99.8672ZM420.156 47.125V104H424.156V47.125H420.156ZM422.156 102H414.617V106H422.156V102ZM416.617 104V47.125H412.617V104H416.617ZM414.617 49.125H422.156V45.125H414.617V49.125ZM465.828 47.125H467.828V45.125H465.828V47.125ZM465.828 104V106H467.828V104H465.828ZM458.289 104H456.289V106H458.289V104ZM458.289 47.125V45.125H456.289V47.125H458.289ZM463.828 47.125V104H467.828V47.125H463.828ZM465.828 102H458.289V106H465.828V102ZM460.289 104V47.125H456.289V104H460.289ZM458.289 49.125H465.828V45.125H458.289V49.125ZM523.289 47.125H525.289V45.125H523.289V47.125ZM523.289 104V106H525.289V104H523.289ZM515.711 104L514.036 105.093L514.628 106H515.711V104ZM487.078 60.1328L488.753 59.0396L485.078 53.4096V60.1328H487.078ZM487.078 104V106H489.078V104H487.078ZM479.539 104H477.539V106H479.539V104ZM479.539 47.125V45.125H477.539V47.125H479.539ZM487.078 47.125L488.752 46.0307L488.16 45.125H487.078V47.125ZM515.828 91.1094L514.154 92.2036L517.828 97.8246V91.1094H515.828ZM515.828 47.125V45.125H513.828V47.125H515.828ZM521.289 47.125V104H525.289V47.125H521.289ZM523.289 102H515.711V106H523.289V102ZM517.386 102.907L488.753 59.0396L485.403 61.226L514.036 105.093L517.386 102.907ZM485.078 60.1328V104H489.078V60.1328H485.078ZM487.078 102H479.539V106H487.078V102ZM481.539 104V47.125H477.539V104H481.539ZM479.539 49.125H487.078V45.125H479.539V49.125ZM485.404 48.2193L514.154 92.2036L517.502 90.0151L488.752 46.0307L485.404 48.2193ZM517.828 91.1094V47.125H513.828V91.1094H517.828ZM515.828 49.125H523.289V45.125H515.828V49.125ZM544.188 47.125H546.188V45.125H544.188V47.125ZM544.188 104V106H546.188V104H544.188ZM536.648 104H534.648V106H536.648V104ZM536.648 47.125V45.125H534.648V47.125H536.648ZM578.523 47.125L580.017 48.4555L582.984 45.125H578.523V47.125ZM554.891 73.6484L556.331 75.0359L556.358 75.0079L556.384 74.9789L554.891 73.6484ZM541.609 87.4375L539.633 87.7445L540.252 91.7296L543.05 88.8249L541.609 87.4375ZM540.359 79.3906L538.879 78.0463L538.236 78.7536L538.383 79.6976L540.359 79.3906ZM550.359 68.375L551.84 69.7193L551.847 69.712L550.359 68.375ZM569.461 47.125V45.125H568.569L567.974 45.788L569.461 47.125ZM571.258 104L569.665 105.209L570.265 106H571.258V104ZM550.203 76.2656L548.604 75.064L547.697 76.2716L548.61 77.4749L550.203 76.2656ZM554.695 70.2891L556.289 69.0811L554.689 66.9691L553.097 69.0874L554.695 70.2891ZM580.242 104V106H584.267L581.836 102.792L580.242 104ZM542.188 47.125V104H546.188V47.125H542.188ZM544.188 102H536.648V106H544.188V102ZM538.648 104V47.125H534.648V104H538.648ZM536.648 49.125H544.188V45.125H536.648V49.125ZM577.03 45.7945L553.397 72.3179L556.384 74.9789L580.017 48.4555L577.03 45.7945ZM553.45 72.261L540.169 86.0501L543.05 88.8249L556.331 75.0359L553.45 72.261ZM543.586 87.1305L542.336 79.0836L538.383 79.6976L539.633 87.7445L543.586 87.1305ZM541.84 80.7349L551.84 69.7193L548.879 67.0307L538.879 78.0463L541.84 80.7349ZM551.847 69.712L570.948 48.462L567.974 45.788L548.872 67.038L551.847 69.712ZM569.461 49.125H578.523V45.125H569.461V49.125ZM572.851 102.791L551.796 75.0563L548.61 77.4749L569.665 105.209L572.851 102.791ZM551.802 77.4673L556.294 71.4907L553.097 69.0874L548.604 75.064L551.802 77.4673ZM553.101 71.497L578.648 105.208L581.836 102.792L556.289 69.0811L553.101 71.497ZM580.242 102H571.258V106H580.242V102ZM616.57 86.1094L614.698 86.8116L614.708 86.8402L614.72 86.8685L616.57 86.1094ZM614.461 83.2969L613.173 84.8267L613.182 84.8349L613.192 84.843L614.461 83.2969ZM610.32 80.9141L609.526 82.7495L609.536 82.7537L610.32 80.9141ZM603.68 78.6094L603.112 80.527L603.12 80.5296L603.68 78.6094ZM596.062 75.8359L595.227 77.6531L595.236 77.6571L595.244 77.661L596.062 75.8359ZM590.516 50.7969L591.78 52.3469L591.782 52.3448L590.516 50.7969ZM615.438 48.8047L614.47 50.5552L614.479 50.5602L614.488 50.5651L615.438 48.8047ZM622.273 55.1719L620.554 56.1934L620.558 56.2009L622.273 55.1719ZM624.617 63.5312V65.5312H626.617V63.5312H624.617ZM617.117 63.5312H615.117V65.5312H617.117V63.5312ZM615.75 57.8672L613.995 58.8268L614.002 58.8385L615.75 57.8672ZM611.609 53.9609L610.685 55.7346L610.695 55.7397L610.705 55.7447L611.609 53.9609ZM594.031 57.0078L592.333 55.9507L592.326 55.9623L592.319 55.9741L594.031 57.0078ZM593.523 65.0156L591.735 65.9101L591.749 65.9386L591.764 65.9667L593.523 65.0156ZM595.906 67.7109L594.676 69.2876L594.685 69.2947L594.694 69.3018L595.906 67.7109ZM600.047 70.0156L599.269 71.8584L599.28 71.8626L600.047 70.0156ZM606.102 72.0469L606.645 70.1221L606.637 70.1198L606.102 72.0469ZM620.242 78.8828L618.879 80.3466L618.892 80.3587L618.906 80.3707L620.242 78.8828ZM623.641 83.6094L621.791 84.3709L621.798 84.3874L621.805 84.4038L623.641 83.6094ZM619.344 100.641L618.132 99.0492L619.344 100.641ZM613.055 103.727L613.612 105.647L613.626 105.643L613.055 103.727ZM597.156 103.688L596.602 105.609L596.607 105.611L597.156 103.688ZM590.242 100.406L589.086 102.038L589.095 102.045L590.242 100.406ZM585.281 95.0156L583.541 96.0011L583.548 96.0136L583.555 96.026L585.281 95.0156ZM583.445 87.5156V85.5156H581.445V87.5156H583.445ZM590.945 87.5156H592.945V85.5156H590.945V87.5156ZM592.078 92.5547L590.316 93.5009L590.32 93.5078L590.324 93.5147L592.078 92.5547ZM595.164 95.9922L594.017 97.6307L594.025 97.636L594.032 97.6412L595.164 95.9922ZM599.656 98.0234L599.143 99.9564L599.16 99.9611L599.178 99.9655L599.656 98.0234ZM615.75 94.4297L614.12 93.2702L614.113 93.2807L614.106 93.2913L615.75 94.4297ZM619.195 89.625C619.195 88.0898 618.955 86.6516 618.421 85.3503L614.72 86.8685C615.019 87.5984 615.195 88.504 615.195 89.625H619.195ZM618.443 85.4071C617.908 83.9807 616.968 82.7667 615.73 81.7507L613.192 84.843C613.985 85.4937 614.451 86.1547 614.698 86.8116L618.443 85.4071ZM615.749 81.7671C614.553 80.7601 612.978 79.8733 611.105 79.0744L609.536 82.7537C611.204 83.4652 612.389 84.167 613.173 84.8267L615.749 81.7671ZM611.115 79.0786C609.267 78.2788 606.968 77.484 604.239 76.6892L603.12 80.5296C605.756 81.2972 607.884 82.0389 609.526 82.7495L611.115 79.0786ZM604.248 76.6918C601.506 75.8793 599.052 74.9843 596.881 74.0109L595.244 77.661C597.604 78.7188 600.229 79.6728 603.112 80.527L604.248 76.6918ZM596.898 74.0188C594.759 73.0356 592.972 71.9371 591.513 70.7367L588.972 73.8258C590.742 75.2817 592.834 76.553 595.227 77.6531L596.898 74.0188ZM591.513 70.7367C590.095 69.5707 589.043 68.2633 588.32 66.8165L584.742 68.6054C585.738 70.5961 587.16 72.3355 588.972 73.8258L591.513 70.7367ZM588.32 66.8165C587.619 65.4149 587.242 63.7628 587.242 61.8125H583.242C583.242 64.2893 583.724 66.5695 584.742 68.6054L588.32 66.8165ZM587.242 61.8125C587.242 59.8828 587.637 58.1399 588.408 56.5541L584.811 54.8053C583.759 56.9695 583.242 59.3152 583.242 61.8125H587.242ZM588.408 56.5541C589.186 54.9529 590.301 53.5524 591.78 52.3469L589.252 49.2468C587.345 50.8018 585.855 52.6564 584.811 54.8053L588.408 56.5541ZM591.782 52.3448C593.289 51.1121 595.109 50.1289 597.275 49.4151L596.022 45.6162C593.448 46.4649 591.18 47.6692 589.249 49.249L591.782 52.3448ZM597.275 49.4151C599.412 48.7106 601.839 48.3438 604.578 48.3438V44.3438C601.484 44.3438 598.625 44.7582 596.022 45.6162L597.275 49.4151ZM604.578 48.3438C608.597 48.3438 611.865 49.1153 614.47 50.5552L616.405 47.0542C613.073 45.2128 609.101 44.3438 604.578 44.3438V48.3438ZM614.488 50.5651C617.201 52.0276 619.197 53.9087 620.554 56.1933L623.993 54.1504C622.225 51.1746 619.664 48.811 616.387 47.0442L614.488 50.5651ZM620.558 56.2009C621.939 58.5017 622.617 60.9336 622.617 63.5312H626.617C626.617 60.1914 625.733 57.0504 623.988 54.1429L620.558 56.2009ZM624.617 61.5312H617.117V65.5312H624.617V61.5312ZM619.117 63.5312C619.117 61.1034 618.596 58.8726 617.498 56.8959L614.002 58.8385C614.726 60.1431 615.117 61.6882 615.117 63.5312H619.117ZM617.505 56.9076C616.382 54.8542 614.688 53.2798 612.514 52.1771L610.705 55.7447C612.228 56.5171 613.295 57.5468 613.995 58.8268L617.505 56.9076ZM612.534 52.1873C610.315 51.0312 607.628 50.5156 604.578 50.5156V54.5156C607.206 54.5156 609.206 54.9636 610.685 55.7346L612.534 52.1873ZM604.578 50.5156C601.713 50.5156 599.188 50.9442 597.098 51.9114L598.777 55.5417C600.176 54.8944 602.079 54.5156 604.578 54.5156V50.5156ZM597.098 51.9114C595.065 52.852 593.434 54.1831 592.333 55.9507L595.729 58.0649C596.347 57.0721 597.321 56.2157 598.777 55.5417L597.098 51.9114ZM592.319 55.9741C591.279 57.6964 590.781 59.6361 590.781 61.7344H594.781C594.781 60.2909 595.117 59.0796 595.743 58.0416L592.319 55.9741ZM590.781 61.7344C590.781 63.2166 591.09 64.6202 591.735 65.9101L595.312 64.1212C594.968 63.4318 594.781 62.648 594.781 61.7344H590.781ZM591.764 65.9667C592.443 67.2232 593.44 68.3235 594.676 69.2876L597.137 66.1343C596.237 65.4317 595.645 64.7351 595.283 64.0646L591.764 65.9667ZM594.694 69.3018C595.956 70.2632 597.494 71.1091 599.269 71.8584L600.824 68.1729C599.267 67.5159 598.044 66.8253 597.118 66.1201L594.694 69.3018ZM599.28 71.8626C601.068 72.6054 603.167 73.3076 605.566 73.9739L606.637 70.1198C604.348 69.4841 602.411 68.8321 600.814 68.1686L599.28 71.8626ZM605.558 73.9717C608.708 74.8606 611.382 75.8394 613.599 76.8984L615.323 73.2891C612.852 72.1085 609.954 71.056 606.645 70.1221L605.558 73.9717ZM613.599 76.8984C615.804 77.9522 617.55 79.1091 618.879 80.3466L621.605 77.419C619.913 75.844 617.805 74.4749 615.323 73.2891L613.599 76.8984ZM618.906 80.3707C620.237 81.5663 621.185 82.8989 621.791 84.3709L625.49 82.8479C624.638 80.7782 623.321 78.9597 621.579 77.395L618.906 80.3707ZM621.805 84.4038C622.435 85.86 622.773 87.5622 622.773 89.5469H626.773C626.773 87.1045 626.356 84.8483 625.476 82.8149L621.805 84.4038ZM622.773 89.5469C622.773 91.5873 622.363 93.3725 621.578 94.9415L625.156 96.7304C626.247 94.5494 626.773 92.1418 626.773 89.5469H622.773ZM621.578 94.9415C620.784 96.5305 619.645 97.8975 618.132 99.0492L620.555 102.232C622.532 100.728 624.076 98.8914 625.156 96.7304L621.578 94.9415ZM618.132 99.0492C616.609 100.209 614.738 101.138 612.484 101.81L613.626 105.643C616.267 104.856 618.589 103.728 620.555 102.232L618.132 99.0492ZM612.497 101.806C610.287 102.448 607.77 102.781 604.93 102.781V106.781C608.079 106.781 610.979 106.412 613.612 105.647L612.497 101.806ZM604.93 102.781C602.487 102.781 600.081 102.443 597.706 101.764L596.607 105.611C599.336 106.39 602.112 106.781 604.93 106.781V102.781ZM597.711 101.766C595.389 101.096 593.286 100.096 591.389 98.7678L589.095 102.045C591.365 103.634 593.871 104.821 596.602 105.609L597.711 101.766ZM591.399 98.7746C589.569 97.4773 588.111 95.8907 587.007 94.0053L583.555 96.026C584.952 98.4114 586.801 100.418 589.086 102.038L591.399 98.7746ZM587.022 94.0301C585.991 92.2099 585.445 90.0588 585.445 87.5156H581.445C581.445 90.6496 582.124 93.4984 583.541 96.0011L587.022 94.0301ZM583.445 89.5156H590.945V85.5156H583.445V89.5156ZM588.945 87.5156C588.945 89.726 589.373 91.7456 590.316 93.5009L593.84 91.6084C593.272 90.5513 592.945 89.2115 592.945 87.5156H588.945ZM590.324 93.5147C591.228 95.1676 592.466 96.5447 594.017 97.6307L596.311 94.3537C595.258 93.6168 594.439 92.7022 593.833 91.5947L590.324 93.5147ZM594.032 97.6412C595.562 98.6908 597.271 99.4592 599.143 99.9564L600.17 96.0905C598.708 95.7022 597.423 95.1165 596.296 94.3432L594.032 97.6412ZM599.178 99.9655C601.034 100.422 602.953 100.648 604.93 100.648V96.6484C603.261 96.6484 601.664 96.4578 600.134 96.0814L599.178 99.9655ZM604.93 100.648C607.733 100.648 610.228 100.261 612.352 99.4116L610.867 95.6977C609.345 96.3063 607.387 96.6484 604.93 96.6484V100.648ZM612.352 99.4116C614.468 98.5651 616.193 97.3028 617.394 95.5681L614.106 93.2913C613.432 94.2649 612.396 95.0859 610.867 95.6977L612.352 99.4116ZM617.38 95.5892C618.611 93.8586 619.195 91.8407 619.195 89.625H615.195C615.195 91.1072 614.816 92.2924 614.12 93.2702L617.38 95.5892Z" fill="black"/>
<defs>
<linearGradient id="paint0_linear_0_1" x1="15" y1="15" x2="786" y2="140" gradientUnits="userSpaceOnUse">
<stop stop-color="#FF0909"/>
<stop offset="0.14275" stop-color="#FF9A02"/>
<stop offset="0.281833" stop-color="#EBFF03"/>
<stop offset="0.422284" stop-color="#28FF05"/>
<stop offset="0.560697" stop-color="#05FFFF"/>
<stop offset="0.704144" stop-color="#2805FB"/>
<stop offset="0.849394" stop-color="#FF05E6"/>
<stop offset="1" stop-color="#FF0404"/>
</linearGradient>
</defs>
</svg>
